# xmcd
#
# Track frame offsets:
#	150
#	15774
#	37500
#	53648
#	65204
#	79893
#	108672
#	120597
#
# Disc length: 2199 seconds
#
# Revision: 0
# Processed by: cddbd v1.5.2PL0 Copyright (c) Steve Scherf et al.
# Submitted via: EZCDAudioConverter 2.1.7.1
#
DISCID=59089508
DTITLE=Clark-Hutchinson - A=Mh2 2/2
DYEAR=1900
DGENRE=
TTITLE0=Bad Loser
TTITLE1=Crow Jane
TTITLE2=Can't Carry You
TTITLE3=Seymour's Boogie
TTITLE4=Put You Down
TTITLE5=Someone's Been At My Woman
TTITLE6=Make You
TTITLE7=Summer Seemed Longer
EXTD=
EXTT0=
EXTT1=
EXTT2=
EXTT3=
EXTT4=
EXTT5=
EXTT6=
EXTT7=
PLAYORDER=
